<?xml version="1.0" standalone="no"?>
<!DOCTYPE svg PUBLIC "-//W3C//DTD SVG 20010904//EN"
 "http://www.w3.org/TR/2001/REC-SVG-20010904/DTD/svg10.dtd">
<svg version="1.0" xmlns="http://www.w3.org/2000/svg"
 width="960.000000pt" height="960.000000pt" viewBox="0 0 960.000000 960.000000"
 preserveAspectRatio="xMidYMid meet">

<g transform="translate(0.000000,960.000000) scale(0.100000,-0.100000)"
fill="#000000" stroke="none">
<path d="M3395 9113 c6 -6 57 -43 115 -83 202 -141 419 -385 571 -641 71 -120
163 -308 155 -316 -3 -3 -24 8 -48 25 -60 41 -229 124 -316 156 -197 71 -399
101 -602 92 -80 -4 -165 -11 -190 -15 l-45 -7 137 -66 c213 -103 371 -214 551
-387 77 -74 237 -257 260 -296 4 -8 -18 -2 -55 14 -259 117 -629 176 -953 151
-139 -10 -330 -42 -436 -73 l-44 -13 75 -23 c425 -126 726 -250 981 -403 147
-89 244 -164 341 -267 250 -263 408 -519 443 -722 l7 -36 -119 -30 c-826 -214
-1398 -852 -1632 -1823 -129 -529 -152 -1262 -60 -1880 103 -692 336 -1205
710 -1566 306 -294 685 -466 1179 -536 145 -20 643 -17 787 4 509 77 880 253
1189 564 450 452 688 1153 724 2128 36 1010 -167 1807 -608 2376 -138 178
-362 378 -553 494 -178 108 -426 208 -622 251 l-79 17 7 37 c35 204 192 458
443 722 97 103 194 178 341 267 255 153 556 277 981 403 l75 23 -44 13 c-106
31 -297 63 -436 73 -324 25 -694 -34 -953 -151 -37 -16 -59 -22 -55 -14 23 39
183 222 260 296 180 173 338 284 551 387 l137 66 -45 7 c-25 4 -110 11 -190
15 -203 9 -405 -21 -602 -92 -87 -32 -256 -115 -316 -156 -24 -17 -45 -28 -48
-25 -8 8 84 196 155 316 152 256 369 500 571 641 58 40 110 77 115 83 6 6 -22
7 -80 3 -413 -31 -765 -191 -1048 -478 -79 -79 -99 -95 -104 -81 -53 152 -150
373 -163 373 -11 0 -94 -185 -135 -302 l-38 -107 -106 108 c-288 295 -637 456
-1056 487 -58 4 -86 3 -80 -3z m502 -208 c100 -38 263 -126 355 -192 95 -68
234 -202 299 -290 l46 -61 -28 -138 c-51 -247 -86 -638 -95 -1048 -6 -248 -6
-250 -44 -400 -21 -84 -42 -175 -46 -204 -3 -28 -10 -52 -13 -52 -4 0 -17 21
-30 48 -92 189 -359 503 -552 647 -169 126 -397 249 -663 356 l-118 47 47 8
c27 4 116 2 200 -4 390 -29 662 -126 955 -342 74 -54 138 -99 142 -100 11 0
-151 291 -218 391 -132 197 -353 431 -541 574 -51 38 -91 71 -89 73 2 1 48 -6
103 -17 288 -59 511 -175 748 -390 60 -55 111 -98 113 -96 6 5 -64 264 -93
345 -37 105 -153 338 -220 445 -79 123 -181 258 -266 349 -39 42 -68 76 -65
76 3 0 36 -11 73 -25z m1826 -37 c-136 -143 -274 -341 -378 -541 -80 -155
-126 -271 -170 -432 -19 -70 -36 -130 -38 -132 -2 -1 -11 62 -21 142 -16 128
-73 422 -91 466 -4 12 16 44 68 105 125 148 270 263 446 353 94 48 214 99 235
101 5 0 -18 -28 -51 -62z m-864 -358 c113 -337 156 -606 167 -1020 l6 -225
-84 165 c-46 91 -101 191 -122 223 l-39 57 -34 -61 c-19 -34 -61 -125 -95
-203 -33 -77 -62 -143 -65 -146 -5 -5 -2 50 18 320 20 285 46 475 90 658 42
180 103 372 113 361 2 -2 22 -60 45 -129z m1216 -313 c-242 -178 -467 -411
-618 -639 -61 -92 -219 -378 -209 -378 4 1 68 46 142 100 293 216 565 313 955
342 84 6 173 8 200 4 l47 -8 -118 -47 c-266 -107 -494 -230 -663 -356 -191
-143 -433 -425 -546 -636 -35 -67 -37 -66 -50 21 -4 25 -22 110 -42 190 l-35
145 1 390 1 390 107 98 c231 209 455 327 739 387 116 24 125 24 89 -3z m-1215
-859 c132 -279 221 -589 265 -921 23 -176 21 -201 -14 -227 -53 -37 -155 -79
-219 -89 -101 -16 -194 4 -323 71 -111 57 -110 55 -98 173 19 202 62 392 146
650 63 193 168 465 180 465 2 0 31 -55 63 -122z m-383 -1256 c22 -17 21 -18
-115 -109 -75 -51 -186 -131 -247 -178 -60 -48 -115 -89 -121 -91 -9 -4 -221
113 -248 137 -10 8 155 94 268 139 106 42 363 112 436 119 3 0 15 -7 27 -17z
m833 -16 c58 -13 148 -39 200 -56 100 -34 333 -140 343 -157 5 -8 -189 -132
-236 -152 -4 -1 -34 17 -65 42 -112 87 -239 180 -335 244 l-98 66 28 18 c35
24 37 24 163 -5z m-580 -78 c54 -10 200 -6 230 6 10 4 62 -24 140 -75 121 -79
384 -271 394 -288 3 -4 -29 -32 -72 -61 -126 -87 -368 -270 -496 -374 -65 -53
-122 -96 -127 -96 -5 0 -66 47 -136 103 -146 118 -380 294 -490 368 -40 28
-71 54 -68 60 10 15 228 177 333 248 146 98 206 132 222 125 8 -3 40 -10 70
-16z m-887 -345 l46 -29 -142 -124 c-78 -69 -228 -211 -334 -317 l-192 -192
-111 53 -110 53 80 119 c115 172 96 157 167 134 l60 -21 88 31 c158 56 151 39
56 134 l-82 83 63 55 c35 30 90 75 123 101 l59 46 92 -48 c50 -27 112 -62 137
-78z m2235 60 c31 -25 78 -65 103 -89 l46 -42 -83 -83 c-46 -46 -80 -87 -76
-91 4 -4 55 -24 112 -43 l105 -35 62 21 c53 19 64 20 79 9 17 -15 174 -248
174 -259 0 -3 -51 -29 -113 -56 l-112 -51 -185 186 c-103 102 -252 243 -333
315 l-147 129 47 30 c27 16 88 51 137 77 101 54 94 54 184 -18z m-1947 -250
c188 -131 569 -425 569 -439 0 -2 -17 -19 -37 -37 -219 -194 -331 -296 -457
-414 l-149 -140 -146 110 c-148 111 -382 271 -501 342 -36 21 -67 40 -69 41
-18 15 626 624 658 624 5 0 64 -39 132 -87z m1601 -20 c120 -105 528 -501 528
-512 0 -3 -31 -24 -68 -45 -117 -68 -321 -207 -489 -332 l-161 -122 -131 123
c-133 126 -392 361 -469 426 -23 20 -42 39 -42 42 0 24 670 527 702 527 4 0
63 -48 130 -107z m982 -570 c25 -56 62 -148 81 -205 34 -97 105 -340 105 -360
0 -5 -40 50 -88 124 -90 135 -183 259 -292 389 -34 40 -57 76 -52 81 16 16
187 87 194 80 4 -4 27 -53 52 -109z m-3658 67 l86 -40 -19 -23 c-10 -13 -61
-78 -114 -143 -101 -126 -216 -284 -269 -371 -17 -29 -33 -53 -35 -53 -6 0 44
180 82 295 33 102 106 283 139 348 8 15 21 27 29 27 8 0 53 -18 101 -40z
m1859 -97 c135 -117 424 -384 485 -447 26 -27 40 -49 35 -54 -6 -5 -39 -33
-75 -62 -118 -99 -323 -283 -442 -399 l-117 -113 -153 145 c-145 138 -397 362
-464 414 l-31 23 111 108 c184 178 522 482 536 482 3 0 55 -44 115 -97z
m-1510 -96 c118 -73 283 -187 432 -300 l132 -100 -163 -171 c-172 -179 -307
-329 -436 -482 l-77 -92 -134 88 c-150 99 -355 217 -435 252 -30 13 -54 29
-54 36 0 17 47 109 111 219 104 176 246 374 407 565 l65 78 36 -22 c20 -12 72
-44 116 -71z m3041 -27 c106 -126 226 -290 309 -420 73 -115 175 -305 175
-324 0 -6 -19 -19 -43 -29 -75 -30 -276 -146 -426 -244 -78 -51 -146 -95 -150
-96 -4 -1 -34 30 -66 68 -120 143 -275 314 -441 490 l-172 182 32 25 c166 131
395 292 569 399 105 64 113 68 127 51 8 -10 47 -56 86 -102z m-2111 -685 c83
-73 201 -182 264 -242 l114 -108 -183 -190 c-100 -105 -248 -263 -328 -352
l-145 -162 -46 41 c-189 168 -396 339 -533 442 -43 32 -78 63 -78 68 0 20 251
304 508 575 l154 163 62 -51 c33 -28 129 -111 211 -184z m1600 -190 c148 -165
266 -306 263 -315 -2 -4 -57 -49 -123 -101 -146 -113 -263 -210 -416 -346
l-116 -102 -164 182 c-90 100 -238 257 -328 350 l-164 168 39 40 c67 69 343
321 479 438 l130 111 146 -153 c80 -83 194 -206 254 -272z m-3212 -36 c184
-93 508 -301 488 -314 -38 -23 -398 -533 -511 -724 -35 -59 -45 -69 -60 -61
-20 11 -27 62 -37 275 l-6 141 107 39 108 38 -108 108 -107 108 6 143 c9 198
18 288 29 288 4 0 45 -19 91 -41z m4261 -16 c3 -32 9 -131 13 -221 l6 -163
-102 -103 -103 -104 43 -16 c24 -9 69 -24 99 -35 l55 -18 -1 -119 c-1 -192
-13 -293 -34 -304 -16 -8 -27 4 -81 93 -122 199 -276 420 -430 618 l-67 86
121 81 c67 44 142 92 167 108 66 40 283 154 296 154 6 0 14 -26 18 -57z
m-2048 -336 c135 -138 304 -320 438 -470 l79 -87 -205 -203 c-113 -111 -260
-260 -327 -332 l-121 -130 -141 150 c-78 83 -225 232 -327 332 l-186 182 70
78 c206 232 569 613 584 613 4 0 65 -60 136 -133z m-1542 -81 c118 -88 296
-234 444 -364 l140 -123 -133 -161 c-111 -133 -220 -271 -410 -521 l-20 -26
-110 90 c-164 134 -366 275 -524 367 -17 10 -3 38 117 222 129 200 402 570
419 570 4 0 38 -24 77 -54z m2989 -67 c150 -195 421 -594 442 -651 3 -8 -32
-35 -88 -69 -133 -82 -291 -195 -432 -309 l-123 -99 -88 117 c-114 153 -254
328 -376 474 l-98 117 127 111 c239 210 520 433 538 427 5 -2 49 -55 98 -118z
m-2004 -815 c166 -168 308 -316 317 -329 19 -29 37 -4 -178 -259 -86 -102
-203 -249 -261 -325 l-104 -139 -106 116 c-139 152 -306 324 -435 446 l-104
97 88 117 c172 230 459 582 474 582 4 0 143 -137 309 -306z m1248 199 c118
-142 302 -374 392 -495 l71 -97 -82 -77 c-112 -104 -348 -345 -465 -476 l-96
-106 -97 127 c-118 157 -224 288 -364 450 l-106 125 62 65 c135 141 583 591
589 591 3 0 47 -48 96 -107z m-2838 -200 c194 -118 556 -396 547 -419 -3 -7
-43 -68 -89 -136 -47 -68 -130 -196 -185 -286 l-101 -164 -40 81 c-23 44 -41
87 -41 95 0 8 25 30 55 48 30 18 55 36 55 39 0 4 -48 50 -107 104 -60 53 -111
103 -115 110 -12 20 -74 273 -93 378 l-18 99 23 49 c13 27 26 49 28 49 3 0 39
-21 81 -47z m4131 -2 c23 -50 23 -50 6 -143 -9 -51 -33 -159 -53 -241 l-36
-147 -111 -102 c-61 -56 -112 -104 -113 -107 -2 -3 18 -18 45 -33 26 -15 53
-31 60 -36 10 -7 4 -29 -29 -100 -23 -51 -45 -92 -48 -92 -4 0 -31 42 -61 92
-30 51 -113 181 -185 288 -71 107 -131 200 -133 206 -3 13 185 168 331 273 88
63 287 191 298 191 3 0 16 -22 29 -49z m-2003 -578 c170 -199 443 -546 443
-563 0 -3 -41 -54 -91 -115 -134 -163 -287 -369 -381 -515 -46 -71 -85 -129
-88 -129 -3 -1 -38 51 -78 113 -88 138 -242 347 -380 515 -56 68 -102 127
-102 131 0 30 536 690 560 690 4 0 57 -57 117 -127z m-1202 -185 c105 -106
230 -236 278 -290 l88 -96 -104 -156 c-58 -86 -142 -224 -188 -306 -46 -82
-87 -150 -92 -150 -17 0 -178 107 -264 176 -138 113 -312 307 -385 431 l-17
29 70 120 c39 65 129 208 201 316 l131 197 46 -38 c25 -22 132 -126 236 -233z
m2608 37 c43 -66 117 -184 164 -262 l84 -142 -32 -48 c-105 -156 -280 -343
-414 -445 -74 -56 -205 -138 -221 -138 -6 0 -29 33 -50 73 -53 102 -158 274
-254 416 l-81 122 77 87 c43 48 187 197 321 331 l243 244 42 -59 c23 -32 77
-113 121 -179z m-2071 -627 c159 -192 345 -449 437 -606 l30 -52 -43 0 c-24 0
-77 3 -119 6 l-75 7 -104 125 c-57 69 -106 130 -110 136 -5 7 -45 -26 -103
-84 l-95 -95 -93 32 c-50 17 -109 39 -130 48 l-38 16 47 87 c78 143 292 481
305 482 3 0 44 -46 91 -102z m1281 -36 c87 -132 158 -250 221 -364 l38 -68
-47 -20 c-25 -11 -80 -32 -121 -46 l-75 -27 -88 87 -87 86 -102 -124 c-76 -92
-110 -125 -131 -129 -16 -3 -82 -9 -147 -13 l-118 -7 24 39 c144 240 516 734
541 719 5 -4 47 -63 92 -133z"/>
<path d="M4685 5510 c-60 -60 -107 -111 -104 -113 2 -2 51 -20 109 -40 l105
-37 102 34 c56 19 108 38 114 42 7 4 -30 48 -97 115 -60 60 -111 109 -114 109
-3 0 -55 -49 -115 -110z"/>
<path d="M3925 4820 c-60 -60 -107 -111 -104 -113 2 -2 52 -20 110 -40 l105
-37 85 29 c46 16 97 34 113 40 l30 12 -109 109 c-61 61 -112 110 -115 110 -3
0 -55 -49 -115 -110z"/>
<path d="M5445 4820 c-60 -60 -107 -111 -104 -113 2 -2 52 -20 110 -40 l105
-37 85 29 c46 16 97 34 113 40 l30 12 -109 109 c-61 61 -112 110 -115 110 -3
0 -55 -49 -115 -110z"/>
<path d="M4682 4217 l-112 -112 113 -39 113 -39 112 37 c62 21 112 41 112 44
0 8 -213 222 -220 222 -3 0 -56 -51 -118 -113z"/>
<path d="M3131 4036 c-95 -95 -110 -114 -94 -121 10 -4 61 -22 114 -40 l95
-32 108 38 c59 20 110 39 112 41 2 2 -47 54 -109 116 l-112 112 -114 -114z"/>
<path d="M6251 4036 l-113 -113 74 -27 c163 -58 142 -57 250 -20 53 18 104 36
112 41 13 7 -7 31 -97 121 l-112 112 -114 -114z"/>
<path d="M3923 3408 l-113 -113 114 -39 114 -39 111 38 c61 21 111 41 111 44
0 7 -213 221 -220 221 -3 0 -56 -51 -117 -112z"/>
<path d="M5483 3408 l-113 -113 114 -39 114 -39 111 38 c61 21 111 41 111 44
0 7 -213 221 -220 221 -3 0 -56 -51 -117 -112z"/>
<path d="M4682 2687 l-114 -114 114 -40 114 -41 106 37 c59 20 109 39 112 42
3 3 -45 55 -107 117 l-112 112 -113 -113z"/>
<path d="M3262 2607 l-112 -112 115 -39 115 -39 107 38 c60 21 110 39 112 42
5 4 -210 223 -219 223 -3 0 -56 -51 -118 -113z"/>
<path d="M6117 2612 c-59 -59 -107 -110 -107 -113 0 -4 51 -23 113 -44 l112
-38 105 37 c57 20 106 39 109 42 5 5 -209 224 -219 224 -3 0 -54 -48 -113
-108z"/>
<path d="M4025 1920 c-60 -60 -106 -113 -101 -117 4 -4 55 -24 113 -44 l105
-36 103 36 c57 20 107 40 112 44 6 7 -204 227 -217 227 -3 0 -55 -49 -115
-110z"/>
<path d="M5342 1917 l-114 -114 114 -40 113 -40 100 34 c55 19 106 38 112 42
8 4 -26 45 -100 119 l-112 112 -113 -113z"/>
<path d="M4685 1270 c-60 -60 -107 -111 -104 -113 2 -2 52 -21 110 -41 l105
-37 110 37 c60 20 111 39 113 41 5 4 -210 223 -219 223 -3 0 -55 -49 -115
-110z"/>
<path d="M3455 1150 c-60 -60 -107 -111 -104 -113 2 -2 53 -21 113 -41 l110
-37 105 37 c58 20 108 38 110 41 5 4 -210 223 -219 223 -3 0 -55 -49 -115
-110z"/>
<path d="M5935 1150 c-60 -60 -107 -111 -104 -113 2 -3 52 -21 110 -41 l105
-37 110 37 c60 20 111 39 113 41 5 4 -210 223 -219 223 -3 0 -55 -49 -115
-110z"/>
</g>
</svg>
