<?xml version="1.0" standalone="no"?>
<!DOCTYPE svg PUBLIC "-//W3C//DTD SVG 20010904//EN"
 "http://www.w3.org/TR/2001/REC-SVG-20010904/DTD/svg10.dtd">
<svg version="1.0" xmlns="http://www.w3.org/2000/svg"
 width="641.000000pt" height="369.000000pt" viewBox="0 0 641.000000 369.000000"
 preserveAspectRatio="xMidYMid meet">

<g transform="translate(0.000000,369.000000) scale(0.100000,-0.100000)"
fill="#000000" stroke="none">
<path d="M5872 3673 c-30 -6 -38 -25 -52 -123 -17 -123 -78 -424 -102 -505
-11 -38 -34 -96 -50 -128 -25 -51 -35 -61 -86 -84 -74 -35 -141 -78 -282 -183
-343 -256 -428 -303 -795 -438 -192 -71 -599 -189 -845 -246 -327 -74 -512
-102 -785 -116 -480 -24 -1036 54 -1500 212 -284 96 -539 229 -767 398 -90 67
-131 82 -230 82 -55 0 -80 -6 -137 -32 -79 -37 -104 -65 -142 -162 -15 -38
-41 -90 -58 -116 -17 -27 -31 -61 -31 -77 0 -15 16 -61 36 -103 20 -41 55
-131 78 -201 52 -154 65 -185 137 -326 86 -170 147 -265 280 -430 181 -225
296 -316 699 -555 96 -57 191 -113 210 -124 135 -82 310 -163 530 -246 58 -22
213 -64 320 -87 342 -73 1004 -104 1360 -63 47 5 141 14 210 19 260 22 741 96
815 126 17 6 55 18 85 25 83 19 314 111 420 168 219 115 308 180 479 351 206
205 431 457 504 561 102 148 162 260 203 380 l29 85 0 275 c0 267 -1 278 -27
370 -18 66 -48 135 -98 224 l-71 129 16 76 c9 42 24 123 35 181 34 188 60 296
100 416 22 65 40 128 40 139 0 43 -117 125 -178 125 -16 0 -54 -5 -84 -11 -45
-9 -69 -8 -126 5 -70 16 -95 17 -140 9z m242 -452 c26 -21 54 -48 62 -60 28
-39 10 -123 -65 -305 -57 -137 -55 -149 24 -238 109 -122 134 -231 138 -599 2
-205 -2 -229 -68 -361 -56 -112 -189 -303 -375 -539 -41 -53 -86 -111 -100
-130 -73 -99 -283 -285 -401 -354 -218 -127 -318 -175 -544 -260 -241 -91
-645 -161 -1080 -186 -243 -14 -815 -5 -940 15 -298 47 -478 91 -720 172 -91
30 -141 49 -305 114 -56 22 -331 156 -385 188 -300 174 -418 271 -623 509 -57
66 -66 78 -154 206 -154 224 -302 520 -300 598 1 40 37 83 91 109 44 20 50 21
83 7 34 -14 140 -87 223 -153 54 -43 282 -196 325 -219 261 -136 507 -216 980
-318 63 -14 158 -35 210 -46 320 -69 763 -95 1205 -70 389 21 505 41 489 84
-13 32 -51 35 -192 14 -75 -11 -193 -22 -262 -26 -207 -9 -776 37 -1070 87
-63 11 -159 27 -214 35 -54 9 -102 17 -105 20 -4 2 -49 11 -101 20 -172 28
-482 103 -590 142 -129 46 -356 167 -590 313 -22 14 -86 54 -142 89 -126 78
-138 89 -138 115 1 31 31 81 63 106 l28 23 42 -32 c85 -63 294 -191 313 -191
3 0 33 -13 67 -29 165 -76 448 -178 642 -231 490 -134 656 -166 915 -176 269
-11 663 41 1105 146 44 10 127 30 185 44 58 14 175 41 260 61 602 142 1016
344 1294 632 61 64 80 77 151 104 44 17 116 38 160 46 109 22 137 53 219 245
24 58 86 246 86 264 0 27 20 54 39 54 10 0 40 -17 65 -39z"/>
<path d="M6002 2453 c-13 -9 -54 -60 -92 -112 -128 -181 -414 -441 -595 -543
-89 -50 -349 -177 -465 -227 -41 -18 -91 -40 -110 -48 -19 -9 -122 -44 -227
-79 -196 -65 -243 -86 -243 -110 0 -19 32 -34 72 -34 83 0 354 93 683 233 44
19 98 42 120 51 78 33 301 145 350 177 28 17 75 48 105 67 113 72 276 256 422
475 71 105 57 204 -20 150z"/>
</g>
</svg>
