<?xml version="1.0" standalone="no"?>
<!DOCTYPE svg PUBLIC "-//W3C//DTD SVG 20010904//EN"
 "http://www.w3.org/TR/2001/REC-SVG-20010904/DTD/svg10.dtd">
<svg version="1.0" xmlns="http://www.w3.org/2000/svg"
 width="738.000000pt" height="900.000000pt" viewBox="0 0 738.000000 900.000000"
 preserveAspectRatio="xMidYMid meet">

<g transform="translate(0.000000,900.000000) scale(0.100000,-0.100000)"
fill="#000000" stroke="none">
<path d="M1922 8928 c-89 -241 -165 -560 -192 -815 -18 -164 -8 -468 19 -606
103 -512 407 -814 924 -919 100 -21 139 -23 367 -22 171 1 284 6 343 16 69 11
87 11 87 1 0 -7 -13 -72 -29 -145 -32 -143 -57 -301 -68 -422 -3 -42 -8 -76
-10 -76 -2 0 -61 21 -131 46 -369 134 -718 193 -1071 181 -207 -7 -336 -25
-521 -73 -670 -175 -1194 -645 -1458 -1309 -74 -185 -136 -436 -164 -665 -19
-155 -16 -542 5 -715 98 -774 448 -1508 1065 -2229 145 -168 445 -468 594
-593 388 -324 749 -531 1005 -575 61 -10 94 -8 284 16 242 31 414 61 638 111
92 21 182 35 220 35 36 0 174 -16 306 -35 387 -56 592 -57 895 -1 193 36 398
129 640 291 345 231 639 537 914 950 429 643 702 1371 778 2075 19 176 16 578
-6 735 -100 735 -421 1293 -936 1627 -627 407 -1483 430 -2414 64 -50 -20 -91
-34 -93 -33 -6 7 48 221 82 322 133 394 383 754 695 999 154 120 159 125 170
164 39 140 -23 326 -151 453 -149 149 -351 196 -503 118 -106 -54 -269 -263
-424 -542 -61 -110 -72 -117 -72 -42 0 47 -28 201 -49 270 -45 144 -111 257
-210 356 -123 124 -282 206 -556 289 -321 97 -390 121 -500 175 -229 112 -374
283 -429 504 -8 35 -17 66 -20 68 -2 2 -13 -20 -24 -49z m100 -420 c120 -151
301 -241 745 -368 308 -88 442 -153 577 -279 178 -168 267 -457 246 -801 l-5
-85 -46 65 c-128 179 -279 291 -551 409 l-132 57 -33 60 c-48 87 -65 154 -71
292 -3 68 -9 119 -13 115 -20 -20 -32 -208 -21 -308 6 -55 10 -101 8 -103 -2
-2 -42 16 -87 39 -233 116 -358 247 -445 462 -39 95 -50 87 -41 -31 6 -94 35
-173 93 -258 l43 -63 -42 -13 c-24 -7 -86 -12 -147 -11 l-105 1 59 -24 c80
-32 190 -54 277 -54 69 0 73 -1 152 -54 100 -66 170 -101 329 -167 166 -68
258 -110 258 -120 0 -4 -27 -32 -61 -62 -87 -79 -202 -134 -372 -178 -120 -31
-137 -38 -113 -44 44 -12 235 3 322 25 106 27 212 80 277 140 30 28 60 50 67
50 6 0 28 -12 48 -27 106 -79 198 -186 261 -304 38 -69 40 -78 29 -107 -15
-38 -10 -37 -168 -59 -174 -24 -509 -24 -640 1 -497 92 -772 375 -862 886 -21
122 -16 466 10 628 22 136 69 359 80 376 3 5 13 -1 21 -14 9 -13 33 -46 53
-72z m2487 -734 c111 -56 202 -162 226 -265 6 -24 3 -27 -32 -32 -50 -8 -140
6 -197 31 -84 38 -165 132 -207 241 -22 58 -21 59 72 60 57 1 76 -4 138 -35z
m-189 -284 c95 -97 199 -140 343 -140 71 -1 76 10 -45 -85 -158 -124 -357
-339 -478 -520 -72 -107 -198 -356 -242 -480 -103 -290 -158 -618 -158 -945
l0 -159 -46 -7 c-43 -6 -153 1 -163 11 -9 10 -31 186 -42 345 -24 348 19 737
121 1097 110 391 297 778 499 1033 l65 81 40 -82 c29 -58 60 -103 106 -149z
m-1750 -1464 c228 -32 477 -98 701 -186 l86 -34 7 -206 c3 -113 13 -250 20
-305 8 -55 12 -102 10 -104 -7 -7 -103 29 -167 62 -32 17 -89 56 -127 89 -39
32 -73 58 -76 58 -4 0 -4 -25 -1 -56 22 -212 234 -337 572 -337 255 1 474 65
624 183 50 40 111 120 111 146 0 8 -36 -4 -92 -31 -96 -45 -274 -108 -340
-120 l-38 -7 0 123 c0 118 14 330 25 375 3 16 30 31 107 62 473 188 866 272
1268 272 347 0 627 -61 905 -195 466 -226 814 -657 980 -1214 60 -201 93 -408
104 -646 30 -636 -121 -1290 -454 -1970 -407 -829 -989 -1435 -1618 -1684 -88
-35 -267 -67 -447 -81 -158 -12 -324 -1 -565 35 -88 14 -211 29 -274 35 -111
9 -118 9 -265 -25 -279 -63 -475 -96 -765 -130 -110 -13 -132 -13 -200 1 -368
75 -997 553 -1491 1134 -561 658 -912 1369 -1010 2045 -96 670 11 1289 307
1768 284 458 712 770 1238 901 96 24 265 51 370 60 92 7 389 -4 495 -18z"/>
</g>
</svg>
