<?xml version="1.0" standalone="no"?>
<!DOCTYPE svg PUBLIC "-//W3C//DTD SVG 20010904//EN"
 "http://www.w3.org/TR/2001/REC-SVG-20010904/DTD/svg10.dtd">
<svg version="1.0" xmlns="http://www.w3.org/2000/svg"
 width="380.000000pt" height="361.000000pt" viewBox="0 0 380.000000 361.000000"
 preserveAspectRatio="xMidYMid meet">

<g transform="translate(0.000000,361.000000) scale(0.100000,-0.100000)"
fill="#000000" stroke="none">
<path d="M2291 3218 c-18 -25 -55 -62 -84 -83 -109 -81 -147 -128 -147 -180
l0 -26 -42 34 c-70 57 -174 103 -311 136 -141 34 -177 49 -202 83 -16 22 -17
17 -12 -87 3 -73 11 -129 24 -167 l20 -57 -66 -20 c-36 -11 -95 -37 -130 -58
-80 -47 -218 -177 -276 -257 -109 -155 -192 -383 -259 -711 -75 -368 -74 -677
3 -898 57 -164 167 -295 308 -365 109 -54 172 -66 313 -60 97 4 131 11 222 41
179 60 363 163 616 343 212 152 329 248 462 383 108 108 132 138 168 211 59
118 79 218 64 331 -12 100 -68 275 -116 366 l-33 62 46 7 c120 16 240 72 297
137 48 57 45 73 -15 80 -62 7 -121 38 -236 122 -114 82 -167 99 -287 93 -107
-7 -106 -6 74 82 105 52 137 62 222 75 115 17 141 32 111 66 -16 17 -21 41
-25 134 -3 63 -8 116 -10 119 -3 2 -28 -3 -56 -13 -76 -25 -266 -163 -380
-276 l-101 -100 5 60 c4 65 -8 107 -71 250 -20 44 -42 104 -50 134 l-14 54
-32 -45z m103 -348 c22 -75 21 -152 -4 -200 -19 -38 -49 -54 -51 -27 0 6 -6
39 -14 72 l-13 60 -1 -53 c-1 -67 -16 -99 -37 -81 -9 7 -25 31 -36 53 -11 22
-35 63 -54 90 -40 62 -56 127 -44 180 11 52 36 84 95 124 l48 32 47 -98 c27
-54 55 -122 64 -152z m-652 149 c216 -43 342 -134 455 -329 l26 -45 -34 31
c-49 44 -107 87 -160 118 -45 26 -180 61 -203 53 -6 -2 24 -12 67 -22 52 -11
97 -30 138 -57 65 -42 164 -130 181 -162 9 -17 7 -18 -28 -11 -22 4 -88 9
-149 10 -72 2 -125 8 -154 19 -136 50 -274 230 -289 375 l-5 54 27 -7 c15 -4
72 -16 128 -27z m1160 -51 c6 -55 -9 -68 -117 -104 -105 -35 -247 -108 -312
-161 -29 -24 -55 -43 -58 -43 -17 0 38 69 88 111 63 53 364 238 388 239 4 0 9
-19 11 -42z m-1338 -146 c41 -79 190 -206 282 -241 l45 -18 -38 -25 c-21 -14
-69 -54 -108 -88 -83 -74 -129 -99 -196 -107 -27 -3 -49 -10 -49 -15 0 -15 50
-56 104 -87 221 -127 462 -110 610 43 l54 54 6 -46 c12 -91 103 -210 196 -257
82 -42 165 -58 297 -57 l122 0 8 -47 c4 -25 8 -93 7 -151 -1 -86 -6 -117 -26
-172 -56 -149 -159 -279 -341 -430 -333 -276 -527 -398 -782 -493 -161 -60
-238 -77 -355 -78 -245 -3 -385 93 -487 336 -74 176 -98 327 -90 577 6 184 19
278 68 475 63 255 105 358 208 512 107 159 211 251 361 315 81 34 86 34 104 0z
m1129 -208 c26 -9 97 -51 158 -94 61 -44 128 -87 150 -97 21 -10 39 -21 39
-24 0 -3 -35 -17 -77 -30 -104 -32 -243 -34 -289 -4 -104 67 -194 142 -194
161 0 43 127 21 257 -46 51 -26 93 -46 93 -45 0 7 -147 95 -185 111 -28 12
-65 16 -127 16 -51 -1 -90 3 -94 9 -9 15 -5 17 77 38 92 24 132 25 192 5z
m-494 -60 c46 -10 33 -26 -39 -47 -51 -15 -140 -61 -140 -72 0 -2 27 8 60 22
75 30 163 30 168 -1 6 -28 -94 -118 -170 -155 -128 -61 -234 -64 -358 -10
l-50 21 62 30 c34 16 101 58 148 92 114 84 132 96 182 111 48 15 91 18 137 9z
m303 -110 c97 -49 144 -105 215 -253 35 -74 61 -136 58 -139 -13 -13 -138 18
-201 49 -126 62 -254 212 -254 298 0 44 21 48 86 15 67 -34 137 -108 182 -192
18 -34 37 -64 42 -67 5 -3 3 7 -5 22 -8 15 -26 53 -40 83 -18 39 -49 77 -108
132 -76 72 -80 78 -54 78 15 0 51 -12 79 -26z m273 -190 c8 -4 23 -20 32 -37
17 -34 63 -165 63 -180 0 -23 -41 29 -56 72 -9 25 -27 70 -40 99 -13 28 -21
52 -19 52 2 0 11 -3 20 -6z"/>
<path d="M2291 2874 c0 -11 3 -14 6 -6 3 7 2 16 -1 19 -3 4 -6 -2 -5 -13z"/>
<path d="M2302 2805 c0 -16 2 -22 5 -12 2 9 2 23 0 30 -3 6 -5 -1 -5 -18z"/>
<path d="M1458 2644 c-59 -31 -79 -130 -33 -160 55 -36 145 29 145 106 0 65
-49 89 -112 54z m70 -16 c15 -19 -12 -76 -42 -89 -52 -24 -75 32 -31 76 26 27
57 32 73 13z"/>
<path d="M1164 2390 c-56 -25 -95 -70 -101 -117 -5 -35 -2 -43 23 -62 20 -15
36 -20 54 -16 61 15 120 85 120 145 0 59 -36 78 -96 50z m61 -30 c14 -45 -59
-127 -94 -105 -21 12 -11 62 18 94 33 35 67 40 76 11z"/>
<path d="M1490 2156 c-81 -26 -127 -164 -69 -208 26 -19 28 -19 63 -3 50 24
88 98 84 162 -4 54 -24 67 -78 49z m49 -34 c6 -11 4 -30 -5 -57 -7 -22 -14
-41 -14 -42 0 -1 -14 -10 -31 -18 -24 -13 -34 -14 -45 -4 -25 21 -16 59 25
100 43 43 56 47 70 21z"/>
<path d="M1852 2012 c-38 -21 -66 -56 -81 -104 -14 -43 4 -99 37 -117 37 -20
87 -13 116 15 87 87 26 260 -72 206z m69 -46 c14 -30 6 -64 -22 -99 -26 -34
-54 -34 -75 -2 -13 20 -14 31 -5 57 24 68 80 92 102 44z"/>
<path d="M2285 1988 c-35 -27 -55 -75 -55 -132 0 -91 44 -131 109 -99 46 23
71 72 71 141 0 46 -4 58 -29 83 -35 35 -59 36 -96 7z m73 -30 c16 -16 15 -43
-4 -83 -30 -63 -74 -49 -74 24 0 55 46 91 78 59z"/>
<path d="M951 1931 c-32 -32 -52 -80 -54 -128 -2 -38 2 -49 26 -69 25 -22 31
-23 60 -11 39 16 77 84 77 140 0 69 -67 110 -109 68z m67 -49 c4 -42 -31 -94
-62 -90 -17 2 -21 9 -20 40 2 49 29 90 57 86 17 -2 23 -11 25 -36z"/>
<path d="M2776 1917 c-20 -20 -24 -37 -29 -125 -8 -110 -1 -136 33 -147 69
-22 135 127 99 222 -13 35 -48 73 -66 73 -8 0 -24 -10 -37 -23z m50 -15 c48
-32 42 -170 -7 -180 -19 -3 -29 35 -29 108 0 71 10 90 36 72z"/>
<path d="M1445 1804 c-51 -26 -79 -77 -80 -144 0 -49 4 -63 25 -85 43 -46 105
-19 141 60 32 68 18 162 -26 179 -22 8 -25 7 -60 -10z m63 -26 c33 -33 -11
-130 -60 -136 -22 -3 -29 2 -34 22 -18 71 52 156 94 114z"/>
<path d="M2484 1641 c-75 -46 -109 -157 -64 -213 26 -34 56 -35 100 -5 71 48
102 177 51 218 -29 24 -48 24 -87 0z m82 -38 c15 -59 -67 -146 -103 -110 -11
11 -14 25 -9 52 14 74 98 117 112 58z"/>
<path d="M1953 1590 c-42 -25 -91 -93 -99 -138 -8 -41 10 -81 41 -92 49 -18
152 49 181 117 20 47 17 81 -11 108 -29 30 -68 32 -112 5z m95 -32 c35 -35
-20 -118 -79 -118 -26 0 -29 3 -29 34 0 61 74 118 108 84z"/>
<path d="M1098 1574 c-66 -35 -88 -178 -37 -233 27 -29 52 -26 94 10 96 85 47
280 -57 223z m58 -39 c7 -27 -2 -89 -17 -117 -20 -38 -69 -14 -69 33 0 78 70
147 86 84z"/>
<path d="M1530 1321 c-67 -36 -102 -151 -62 -202 40 -49 119 -19 160 61 31 62
29 113 -4 139 -33 26 -50 26 -94 2z m71 -21 c40 -22 10 -109 -45 -130 -53 -20
-65 62 -17 111 33 33 35 33 62 19z"/>
<path d="M2315 1244 c-42 -21 -91 -71 -106 -106 -15 -37 1 -75 36 -84 33 -8
128 37 154 75 63 88 9 163 -84 115z m80 -49 c0 -35 -51 -75 -96 -75 -24 0 -29
4 -29 26 0 40 52 86 92 82 29 -3 33 -6 33 -33z"/>
<path d="M1905 1179 c-57 -29 -85 -66 -85 -112 0 -81 88 -115 160 -62 73 54
94 135 44 174 -34 27 -69 27 -119 0z m96 -19 c44 -24 12 -94 -54 -119 -33 -13
-67 0 -67 25 0 30 30 71 62 87 40 20 35 19 59 7z"/>
<path d="M974 1137 c-52 -45 -42 -186 15 -217 32 -17 51 -12 87 24 27 27 34
42 34 74 0 49 -14 89 -42 120 -27 28 -60 28 -94 -1z m70 -29 c32 -46 14 -138
-28 -138 -34 0 -51 26 -51 80 0 74 45 107 79 58z"/>
<path d="M1270 904 c-68 -42 -106 -162 -67 -211 28 -37 115 5 146 71 25 50 26
77 6 115 -22 43 -45 50 -85 25z m60 -35 c15 -27 6 -60 -26 -98 -26 -31 -57
-40 -69 -20 -13 20 6 78 34 108 34 36 46 38 61 10z"/>
<path d="M1634 885 c-53 -31 -74 -64 -74 -113 0 -110 138 -94 191 23 24 52 24
70 -1 95 -27 27 -66 25 -116 -5z m104 -33 c5 -31 -57 -92 -92 -92 -22 0 -26 4
-26 28 1 66 110 126 118 64z"/>
</g>
</svg>
